<?xml version="1.0" standalone="no"?>
<!DOCTYPE svg PUBLIC "-//W3C//DTD SVG 20010904//EN"
 "http://www.w3.org/TR/2001/REC-SVG-20010904/DTD/svg10.dtd">
<svg version="1.0" xmlns="http://www.w3.org/2000/svg"
 width="390.000000pt" height="390.000000pt" viewBox="0 0 390.000000 390.000000"
 preserveAspectRatio="xMidYMid meet">
<metadata>
Created by potrace 1.11, written by Peter Selinger 2001-2013
</metadata>
<g transform="translate(0.000000,390.000000) scale(0.100000,-0.100000)"
fill="#000000" stroke="none">
<path d="M2095 3780 c-100 -37 -313 -143 -423 -209 -81 -49 -84 -50 -112 -36
-16 8 -42 15 -59 15 -59 0 -191 -73 -191 -106 0 -18 40 -34 86 -34 19 0 34 -2
34 -3 0 -2 -24 -30 -54 -62 l-54 -58 -57 11 c-71 15 -96 15 -129 2 l-26 -9 22
-36 c13 -24 22 -60 26 -105 4 -58 1 -74 -17 -103 -17 -28 -30 -36 -78 -46
-101 -22 -103 -25 -99 -143 5 -155 21 -214 59 -220 19 -3 23 -12 30 -71 8 -65
7 -69 -26 -125 -129 -214 -180 -462 -146 -708 28 -203 128 -423 257 -566 l35
-38 -37 -80 c-20 -43 -36 -87 -36 -96 0 -9 -16 -38 -35 -64 -19 -26 -35 -57
-35 -68 0 -59 119 -64 187 -8 22 18 37 22 65 18 52 -6 88 5 88 26 0 9 9 32 20
50 l20 32 61 -30 c162 -82 331 -116 538 -107 152 6 248 28 392 91 l84 36 18
-23 c10 -12 36 -49 59 -82 23 -33 42 -61 43 -63 1 -1 23 7 48 18 44 20 49 20
93 5 38 -13 50 -13 71 -3 45 22 50 41 25 100 -12 29 -22 63 -22 75 0 12 -23
51 -50 87 l-50 66 64 76 c166 199 249 429 249 694 0 315 -114 577 -342 792
-43 41 -82 84 -85 96 -12 35 -69 73 -118 77 -24 1 -67 14 -96 28 -30 14 -82
33 -118 43 -35 10 -64 22 -64 26 0 3 16 16 35 28 44 27 81 21 120 -20 16 -17
35 -30 42 -30 18 0 16 40 -3 61 -21 23 -14 32 52 74 41 27 54 40 54 59 0 21
-7 27 -42 37 -50 13 -103 3 -183 -36 -27 -13 -93 -40 -145 -60 -52 -20 -114
-47 -137 -61 -23 -13 -55 -24 -72 -24 -28 0 -31 3 -31 31 0 24 19 51 96 137
112 123 173 208 251 345 62 109 103 212 103 257 0 37 -4 37 -44 3 -36 -30 -86
-53 -116 -53 -18 0 -19 3 -9 23 6 12 23 35 38 50 l26 28 -40 -17 c-22 -9 -53
-27 -68 -40 -27 -23 -39 -28 -62 -25 -16 1 -88 -43 -93 -56 -8 -25 41 -31 127
-15 63 11 92 12 113 4 15 -5 28 -6 28 -1 0 22 -82 23 -202 3 -45 -8 -49 5 -10
28 20 12 34 13 55 6 44 -16 161 5 208 37 l40 26 -7 -28 c-27 -105 -144 -306
-273 -466 -165 -205 -341 -348 -601 -487 -164 -88 -204 -131 -229 -249 -19
-91 3 -180 62 -243 34 -36 21 -35 -36 3 -95 63 -164 165 -188 278 -13 61 1
237 26 336 23 91 75 189 103 193 14 2 49 36 93 88 60 72 69 87 58 100 -11 14
-4 25 52 79 61 60 68 63 124 70 33 3 70 8 82 11 27 5 41 49 25 75 -10 15 -3
23 50 59 64 42 86 46 51 7 -36 -39 -73 -113 -73 -145 0 -22 7 -36 26 -49 15
-10 37 -28 51 -40 14 -14 37 -23 56 -23 34 0 232 46 257 60 9 5 -32 8 -95 7
-70 -1 -124 3 -148 11 -36 13 -37 15 -31 50 8 49 37 114 57 131 15 12 17 9 17
-33 0 -64 19 -74 150 -80 107 -5 105 -4 -35 15 -44 6 -86 15 -92 21 -28 23 -1
123 45 171 33 35 143 93 237 123 39 13 59 23 45 23 -14 0 -61 -13 -105 -29z
m-226 -145 c-19 -19 -39 -35 -45 -35 -5 0 -19 -7 -30 -16 -18 -14 -18 -15 4
-4 13 6 22 7 22 1 0 -11 -58 -61 -71 -61 -14 0 -11 16 6 30 8 7 15 19 15 26 0
8 11 20 25 26 17 8 22 14 14 19 -8 4 6 16 37 32 27 14 51 23 53 21 3 -2 -11
-20 -30 -39z m-302 -122 c24 -10 41 -22 39 -28 -3 -10 -10 -10 -113 1 -45 5
-63 4 -63 -5 0 -7 20 -11 54 -11 30 0 58 -4 61 -10 3 -5 18 -10 33 -10 17 0
23 -3 16 -10 -14 -14 -231 -17 -245 -3 -8 8 -2 17 23 36 45 34 68 39 117 28
44 -10 55 -1 19 17 -40 19 11 15 59 -5z m213 -7 c0 -19 -26 -38 -47 -34 -16 3
-16 5 5 26 25 25 42 28 42 8z m-25 -108 c28 -15 75 -30 105 -34 l55 -8 -43
-12 c-52 -16 -113 -1 -167 41 -38 28 -41 40 -22 82 l12 27 5 -34 c4 -30 13
-39 55 -62z m5 42 c0 -11 -6 -20 -13 -20 -19 0 -27 10 -20 26 8 21 33 17 33
-6z m-470 -166 c27 -11 39 -21 36 -30 -11 -29 -110 -144 -124 -144 -8 0 -12 6
-9 14 3 8 3 17 -1 20 -3 4 -7 15 -9 26 -2 16 3 20 28 20 40 0 28 20 -14 21
-28 1 -25 3 18 14 l50 12 -40 7 c-22 4 -47 9 -55 11 -8 1 19 3 60 4 60 1 71 4
56 13 -10 6 -42 14 -70 18 l-51 8 42 1 c24 0 61 -6 83 -15z m1193 -141 c21
-12 1 -41 -48 -73 -30 -19 -57 -41 -60 -48 -3 -8 4 -25 15 -39 30 -38 16 -40
-25 -4 -59 52 -76 51 -166 -10 -86 -58 -86 -59 -64 -135 6 -19 1 -22 -31 -29
-21 -4 -50 -13 -65 -21 l-27 -14 -12 51 c-7 28 -13 74 -14 102 l-1 51 50 28
c28 15 91 42 140 59 50 18 97 38 105 45 41 33 167 57 203 37z m-1400 -162 c-3
-11 -18 -24 -34 -30 -38 -13 -37 -24 1 -16 37 8 41 -11 4 -25 -14 -6 -22 -15
-19 -20 4 -6 10 -8 15 -5 5 3 11 1 14 -4 4 -5 -9 -22 -29 -37 -38 -29 -50 -63
-16 -44 11 5 22 10 25 10 12 0 6 -49 -6 -53 -10 -4 -10 -7 -1 -14 13 -9 7 -83
-7 -83 -16 0 -30 29 -35 76 -3 27 -8 63 -10 81 -3 18 -1 34 4 37 4 3 7 30 6
60 l-3 55 42 15 c54 19 55 19 49 -3z m787 -51 l0 -60 -65 0 c-58 0 -65 2 -65
19 0 25 20 38 31 20 6 -10 9 -8 9 9 0 12 5 22 11 22 7 0 9 -11 5 -30 -3 -18
-2 -29 3 -25 5 3 12 23 16 45 9 52 25 52 25 -1 0 -24 4 -38 10 -34 6 3 10 26
10 51 0 24 2 44 5 44 3 0 5 -27 5 -60z m88 3 c-4 -23 -48 -31 -48 -10 0 9 6
18 13 20 25 11 38 7 35 -10z m297 -32 c107 -32 167 -62 155 -76 -9 -11 -21 -9
-63 10 -29 12 -81 30 -117 40 -101 27 -97 25 -80 35 21 14 37 12 105 -9z
m-275 -81 c9 -41 26 -101 38 -133 12 -32 22 -61 22 -66 0 -5 -53 -11 -117 -14
-65 -4 -130 -9 -145 -13 -24 -5 -28 -3 -28 15 0 29 -36 28 -51 -1 -16 -32 -15
-31 -38 -18 -12 6 -21 21 -21 33 0 26 -46 80 -63 74 -24 -8 -19 -76 9 -125 19
-33 24 -47 15 -50 -7 -2 -42 -26 -77 -52 -69 -53 -69 -53 -78 25 -3 22 0 59 6
83 6 23 8 45 5 48 -12 12 -75 -18 -105 -49 -17 -17 -39 -52 -50 -77 l-19 -45
-13 39 c-16 49 -3 97 39 146 28 32 30 33 31 13 0 -37 20 -27 92 47 38 38 97
85 133 106 61 33 65 34 65 15 0 -26 1 -26 51 0 50 25 125 27 169 4 32 -17 34
-16 47 1 7 10 13 31 13 47 0 25 3 28 27 25 25 -3 28 -9 43 -78z m-260 56 c0
-14 -29 -31 -38 -21 -6 6 18 35 29 35 5 0 9 -6 9 -14z m540 -27 c30 -10 71
-25 91 -33 l37 -15 -24 -48 c-13 -26 -26 -69 -30 -94 -10 -70 -15 -75 -57 -47
-42 27 -78 88 -107 179 -31 101 -34 99 90 58z m-590 1 c0 -5 -5 -10 -11 -10
-5 0 -7 5 -4 10 3 6 8 10 11 10 2 0 4 -4 4 -10z m818 -42 c7 -7 12 -18 12 -25
0 -10 -8 -9 -35 4 -19 9 -32 20 -29 25 8 12 38 10 52 -4z m-29 -53 c16 -8 47
-36 70 -62 l40 -48 -43 -45 c-24 -25 -48 -54 -54 -66 -9 -16 -18 -20 -43 -16
l-33 5 46 23 c26 13 49 28 53 34 8 13 4 13 -40 -6 -37 -15 -78 -13 -101 7 -13
11 -3 81 23 147 17 46 34 52 82 27z m223 -102 c121 -113 247 -326 288 -488 84
-329 15 -663 -191 -931 -57 -74 -78 -92 -89 -74 -6 9 6 30 39 69 99 116 158
226 208 387 25 83 27 102 27 269 1 158 -2 190 -22 265 -47 171 -129 315 -252
444 -76 79 -94 106 -70 106 6 0 34 -21 62 -47z m-1307 28 c3 -5 1 -12 -5 -16
-5 -3 -10 1 -10 9 0 18 6 21 15 7z m235 -49 c0 -9 12 -29 27 -44 32 -33 73
-38 73 -9 0 44 17 26 29 -30 13 -56 16 -61 80 -107 36 -27 93 -65 127 -86 l60
-37 48 27 c26 14 48 25 50 23 4 -6 46 -132 46 -139 0 -4 -43 -10 -96 -13 l-97
-7 -39 31 c-21 17 -75 72 -120 123 -44 50 -105 117 -135 148 -52 55 -83 109
-83 144 0 13 3 14 15 4 8 -7 15 -20 15 -28z m1161 -160 c267 -385 245 -872
-54 -1235 -22 -26 -43 -47 -47 -45 -5 2 -47 51 -95 110 l-86 107 40 51 c91
116 141 268 141 434 0 165 -45 301 -144 434 -44 59 -46 66 -46 126 0 55 4 69
27 96 23 27 31 31 59 25 38 -7 57 16 43 50 -4 11 -8 24 -8 30 -2 19 122 -112
170 -183z m-1351 110 c0 -4 -6 -14 -12 -20 -8 -8 -9 -15 -3 -20 6 -4 10 -11
10 -17 1 -5 4 -29 9 -53 4 -24 6 -45 4 -47 -1 -2 -17 -7 -33 -11 l-30 -7 24
27 c14 14 19 26 13 26 -6 0 -14 -4 -17 -10 -3 -5 -11 -10 -16 -10 -6 0 -1 14
11 30 25 35 16 39 -17 8 -30 -28 -29 -12 2 34 34 50 31 61 -5 18 -16 -19 -30
-30 -30 -23 0 15 64 83 79 83 6 0 11 -4 11 -8z m515 -12 c-66 -4 -133 -10
-150 -13 -19 -4 -15 -1 10 7 26 9 79 14 150 14 l110 -1 -120 -7z m113 -26 c12
-4 22 -11 22 -16 0 -6 -25 -8 -67 -3 -38 3 -97 2 -133 -5 -96 -16 -99 -16
-100 -5 -3 23 214 46 278 29z m133 -19 c-30 -14 -76 -41 -102 -61 -44 -32 -69
-37 -69 -15 0 14 81 63 134 82 75 27 99 23 37 -6z m-556 -31 c-11 -8 -51 -37
-90 -66 -46 -33 -61 -42 -45 -23 24 26 136 106 149 105 3 -1 -3 -7 -14 -16z
m55 -23 c0 -4 -15 -15 -34 -23 -18 -9 -58 -37 -89 -62 -61 -50 -67 -53 -67
-33 0 14 54 59 124 104 46 29 66 33 66 14z m640 7 c-14 -6 -59 -26 -100 -44
-129 -56 -179 -59 -70 -4 58 29 148 59 180 59 8 0 4 -5 -10 -11z m-1260 -91
c-39 -69 -87 -200 -105 -288 -54 -255 -6 -525 133 -749 89 -144 261 -299 417
-378 256 -128 603 -134 867 -14 53 24 69 28 78 18 20 -25 -185 -102 -333 -126
-122 -20 -330 -8 -442 25 -377 110 -642 385 -747 775 -17 61 -21 106 -21 240
0 148 3 176 26 265 25 91 84 233 124 294 13 21 17 22 25 8 6 -12 0 -32 -22
-70z m999 3 c22 0 11 -17 -21 -32 -30 -14 -35 -13 -65 4 l-33 20 21 39 20 40
33 -36 c18 -19 38 -35 45 -35z m-718 23 c13 -17 13 -17 -6 -3 -11 8 -22 16
-24 17 -2 2 0 3 6 3 6 0 17 -8 24 -17z m-199 -43 c34 -44 104 -106 152 -135
15 -9 15 -15 -9 -72 -36 -89 -59 -232 -51 -320 27 -300 221 -547 503 -641 69
-23 94 -26 218 -26 125 0 148 2 213 25 59 21 74 23 83 13 8 -10 5 -21 -15 -45
-14 -17 -26 -25 -26 -19 0 8 -10 10 -32 6 -18 -4 -67 -12 -108 -18 -41 -5 -78
-13 -82 -17 -4 -4 -2 -51 5 -106 l12 -100 35 0 c33 0 35 2 35 32 0 29 3 34 33
39 30 6 33 9 30 38 -3 29 -5 31 -41 28 -25 -2 -37 1 -32 7 3 6 19 11 35 11 16
0 33 7 38 16 7 12 14 -2 27 -55 24 -91 25 -92 63 -85 37 7 38 17 17 89 -11 34
-12 46 -3 37 7 -7 21 -12 32 -12 18 0 18 -1 3 -18 -22 -24 -21 -39 2 -52 30
-15 63 -12 100 11 36 21 59 17 27 -6 -30 -23 -179 -73 -267 -91 -123 -25 -333
-16 -454 20 -354 104 -614 370 -706 724 -41 155 -36 372 12 531 21 70 98 241
108 240 3 0 23 -22 43 -49z m298 14 c0 -8 -4 -14 -9 -14 -5 0 -18 -3 -28 -6
-16 -6 -16 -5 2 9 l20 16 -20 1 -20 1 20 8 c24 10 35 5 35 -15z m-83 -16 c-3
-8 -6 -5 -6 6 -1 11 2 17 5 13 3 -3 4 -12 1 -19z m143 -70 c0 -15 38 -45 64
-52 14 -3 26 -11 26 -16 0 -13 -27 -13 -35 0 -3 6 -34 10 -68 10 -34 0 -68 4
-76 9 -8 5 5 7 34 3 35 -3 46 -2 41 7 -4 6 -24 12 -44 12 -34 2 -34 2 -7 6 48
7 54 23 10 24 -22 1 -31 3 -20 6 33 8 44 26 13 21 -15 -3 -25 -1 -22 3 3 5 -1
9 -8 9 -7 1 -2 7 12 15 24 13 27 12 52 -18 15 -18 28 -35 28 -39z m1050 -55
c141 -232 116 -581 -56 -786 -35 -42 -29 -22 10 32 86 118 126 245 126 401 0
155 -40 283 -125 402 -19 26 -35 51 -35 56 0 11 45 -48 80 -105z m-15 -45 c93
-176 99 -406 16 -585 -46 -97 -111 -181 -111 -143 0 5 20 39 44 75 24 35 56
102 71 147 24 72 28 98 28 198 0 97 -4 128 -27 197 -15 46 -46 112 -71 149
-25 36 -42 71 -39 76 9 14 47 -35 89 -114z m-673 66 c3 -3 -11 -44 -31 -92
-26 -60 -45 -91 -62 -99 -31 -16 -38 -1 -38 87 1 36 3 59 6 53 3 -9 17 -6 50
12 26 13 51 21 56 18 6 -4 8 0 4 10 -6 16 3 23 15 11z m-39 -11 c-7 -2 -19 -2
-25 0 -7 3 -2 5 12 5 14 0 19 -2 13 -5z m-53 -7 c0 -2 -9 -6 -20 -9 -11 -3
-20 -1 -20 4 0 5 9 9 20 9 11 0 20 -2 20 -4z m261 -56 l77 0 11 -45 c14 -55
61 -110 106 -125 40 -13 39 -11 23 -45 -11 -24 -20 -28 -108 -49 -31 -7 -56
-23 -49 -30 3 -3 19 -2 35 2 45 12 62 4 75 -36 7 -20 41 -95 76 -167 57 -119
80 -151 255 -369 297 -369 280 -344 273 -380 -13 -61 -55 -102 -142 -135 l-52
-20 -23 37 c-12 20 -55 76 -95 124 -47 56 -73 96 -73 112 0 39 -11 57 -42 70
-25 11 -27 14 -14 25 12 10 21 3 56 -43 45 -59 54 -64 83 -42 22 17 22 28 -3
59 -21 26 -21 26 -1 37 17 9 23 6 37 -15 19 -30 34 -31 65 -7 l22 19 -62 81
c-34 45 -68 82 -75 82 -7 0 -21 -9 -31 -20 -17 -18 -17 -21 -1 -45 9 -14 14
-30 11 -35 -10 -17 -32 -11 -48 12 -15 22 -16 23 -43 6 -16 -10 -28 -22 -27
-28 2 -5 -12 -10 -31 -10 -31 0 -42 9 -108 88 -40 48 -110 134 -155 192 -45
58 -95 121 -112 140 l-31 35 -37 -41 c-21 -23 -87 -83 -146 -134 -60 -51 -114
-104 -120 -117 -5 -12 -14 -23 -18 -23 -22 0 -154 133 -179 181 -14 26 115
213 278 403 73 86 139 172 146 193 8 21 21 55 30 76 l16 37 38 -25 c31 -21 48
-25 113 -25z m-695 -7 c-39 -77 -60 -177 -60 -288 0 -203 55 -336 199 -481 75
-76 104 -98 176 -133 48 -23 120 -49 160 -57 97 -21 260 -14 344 15 60 20 92
21 39 0 -58 -22 -161 -39 -239 -39 -114 0 -206 23 -315 76 -162 81 -287 227
-347 409 -47 144 -34 364 28 487 11 21 22 38 24 38 3 0 -1 -12 -9 -27z m51 0
c-4 -10 -18 -52 -33 -93 -50 -141 -42 -321 21 -458 14 -31 22 -59 17 -64 -12
-12 -66 111 -81 182 -27 124 -6 324 45 421 16 31 40 40 31 12z m322 -89 c1
-30 -1 -32 -45 -39 -25 -3 -47 -5 -49 -3 -2 2 14 27 36 55 21 29 40 62 40 75
2 30 18 -47 18 -88z m581 -18 c0 -8 7 -21 15 -29 11 -12 12 -16 2 -20 -8 -3
-17 9 -23 29 -6 19 -7 34 -3 34 5 0 9 -6 9 -14z m-32 -45 c-15 -5 -19 4 -11
24 6 18 7 18 13 -1 4 -10 3 -21 -2 -23z m-538 -15 c0 -14 -144 -178 -162 -185
-5 -2 -2 5 7 16 10 12 18 42 20 74 1 30 6 62 10 72 6 14 2 17 -21 19 -21 1
-16 3 16 8 82 13 130 11 130 -4z m613 -18 c-6 -8 -8 -48 -4 -100 l6 -87 -37
-21 -37 -21 -14 33 c-28 68 -28 95 -1 135 14 21 40 46 57 55 39 21 42 21 30 6z
m-7 -234 c-24 -14 -27 -20 -22 -47 l6 -32 -15 25 c-8 14 -14 28 -15 32 0 8 50
37 65 37 6 0 -3 -7 -19 -15z m-321 -246 c15 -26 15 -28 0 -28 -9 0 -13 5 -9
11 4 8 -7 10 -39 8 -44 -4 -47 -3 -68 34 l-21 38 23 25 23 25 37 -43 c21 -24
45 -55 54 -70z m-135 2 c26 -50 26 -65 0 -22 -22 36 -35 39 -70 16 -14 -9 -10
-2 10 15 19 17 35 31 37 31 1 0 12 -18 23 -40z m-191 -199 c31 -16 85 -37 118
-45 77 -20 230 -20 308 0 81 20 83 20 87 9 2 -5 -24 -18 -57 -29 -45 -14 -89
-19 -180 -19 -105 0 -130 3 -201 27 -88 30 -144 60 -144 76 0 14 4 13 69 -19z
m888 -114 c20 -29 23 -41 15 -49 -9 -9 -19 -5 -40 20 l-27 32 -29 -24 -29 -24
23 -32 c17 -24 20 -34 10 -43 -9 -9 -18 -4 -41 23 -62 73 -83 110 -70 123 9 9
17 5 35 -17 l23 -29 31 23 c31 23 32 30 3 63 -13 16 -13 19 -1 28 16 10 44
-18 97 -94z m-227 -32 c-3 -5 -15 -9 -26 -7 -25 3 -49 -22 -40 -43 4 -11 15
-13 50 -9 54 8 76 -6 76 -46 0 -38 -43 -72 -84 -68 -38 4 -37 22 1 26 32 4 53
19 53 37 0 19 -25 25 -59 15 -60 -17 -95 46 -50 91 14 14 30 19 52 17 18 -2
30 -7 27 -13z m-30 -35 c0 -5 -4 -10 -10 -10 -5 0 -10 5 -10 10 0 6 5 10 10
10 6 0 10 -4 10 -10z m-92 -84 c19 -64 21 -80 11 -87 -19 -12 -24 -3 -48 77
-25 86 -26 96 -4 92 12 -2 25 -28 41 -82z m-875 -66 c26 -18 47 -35 47 -36 0
-2 -10 -24 -22 -49 -21 -44 -23 -45 -67 -45 -50 1 -62 6 -138 64 l-51 39 25
56 c13 31 29 67 34 79 9 24 10 23 67 -25 31 -27 78 -64 105 -83z m777 115 c0
-10 -10 -15 -27 -15 -40 0 -53 -12 -46 -39 5 -20 10 -22 39 -16 26 4 34 2 34
-8 0 -16 -21 -27 -51 -27 -17 0 -19 -5 -13 -35 5 -30 4 -35 -14 -35 -17 0 -21
9 -27 68 -3 37 -9 77 -12 89 -4 18 0 22 29 26 72 9 88 7 88 -8z m230 -45 c0
-5 -10 -10 -22 -10 -19 0 -20 2 -8 10 19 13 30 13 30 0z"/>
<path d="M2676 2428 c-54 -38 -58 -39 -76 -23 -15 13 -23 14 -39 5 -12 -6 -21
-16 -21 -22 0 -17 83 -137 96 -138 5 0 19 6 30 14 17 13 17 18 6 36 -7 12 -12
23 -10 24 2 2 29 22 61 45 48 35 56 45 48 60 -23 42 -35 42 -95 -1z m71 -5 c2
-6 -23 -30 -56 -54 -57 -40 -59 -43 -45 -65 11 -16 12 -24 4 -29 -6 -4 -12 -5
-14 -4 -1 2 -19 28 -40 57 -26 36 -35 57 -28 64 6 6 15 3 25 -12 l15 -22 59
40 c58 41 73 46 80 25z"/>
<path d="M2798 2303 c-22 -5 -22 -14 -4 -58 8 -19 11 -35 6 -35 -4 0 -11 14
-15 31 -4 17 -13 33 -20 35 -18 7 -58 -15 -52 -29 2 -7 7 -23 11 -37 l6 -25
-13 25 c-24 49 -27 51 -50 39 -12 -7 -24 -13 -26 -15 -8 -7 52 -145 63 -141
132 48 186 72 186 81 0 7 -10 39 -23 71 -23 59 -34 68 -69 58z m51 -64 c11
-28 19 -55 16 -59 -9 -15 -156 -63 -164 -54 -5 5 -13 23 -19 39 -5 17 -13 38
-17 48 -5 12 -2 17 8 17 9 0 21 -16 28 -35 13 -35 24 -41 47 -27 10 7 10 16
-2 44 -14 33 -13 48 5 48 4 0 13 -16 19 -35 8 -23 18 -35 30 -35 28 0 32 14
15 53 -13 32 -12 47 5 47 4 0 17 -23 29 -51z"/>
<path d="M2851 2080 l-54 -39 -42 24 c-46 28 -55 25 -55 -17 0 -21 8 -33 29
-46 29 -16 29 -16 7 -27 -16 -8 -20 -19 -18 -40 2 -17 5 -32 7 -34 6 -5 205
21 209 28 2 3 1 21 -1 39 -5 28 -9 32 -37 32 l-31 1 28 20 c18 14 27 30 27 47
0 53 -13 55 -69 12z m18 -52 c-28 -23 -32 -29 -19 -38 8 -5 25 -10 36 -10 21
0 40 -25 26 -34 -4 -2 -42 -9 -86 -16 -64 -9 -80 -9 -87 1 -11 18 -2 29 24 29
12 0 33 3 45 7 22 5 18 9 -30 32 -30 15 -54 34 -56 44 -3 17 -1 17 37 -3 l41
-21 48 37 c40 31 48 33 51 18 2 -11 -10 -29 -30 -46z"/>
<path d="M2744 1866 c-24 -20 -28 -32 -32 -89 l-4 -65 78 -7 c44 -3 91 -8 105
-11 23 -4 27 -1 33 27 7 39 1 49 -30 49 -29 0 -32 16 -4 25 32 10 50 34 50 66
0 33 -9 35 -51 14 -27 -14 -32 -14 -51 0 -32 21 -63 19 -94 -9z m88 -13 c17
-15 21 -15 53 0 33 16 35 16 35 -2 0 -11 -15 -28 -36 -40 -43 -25 -43 -54 -1
-59 20 -3 27 -8 25 -20 -4 -18 -36 -19 -137 -6 l-43 6 4 55 c3 39 10 60 23 69
25 19 55 17 77 -3z"/>
<path d="M2772 1818 c-7 -7 -12 -22 -12 -35 0 -20 5 -23 35 -23 30 0 35 3 35
23 0 24 -17 47 -35 47 -6 0 -16 -5 -23 -12z m38 -23 c0 -8 -7 -15 -15 -15 -8
0 -15 7 -15 15 0 8 7 15 15 15 8 0 15 -7 15 -15z"/>
<path d="M2752 1665 c-39 -6 -75 -14 -78 -18 -15 -15 156 -184 175 -173 14 9
23 57 12 70 -14 17 -2 54 19 61 14 5 40 51 40 71 0 8 -97 1 -168 -11z m138
-21 c0 -9 -9 -18 -20 -21 -26 -7 -47 -68 -29 -89 9 -11 9 -18 0 -27 -8 -8 -27
4 -76 53 -36 35 -65 68 -65 71 0 8 103 26 158 28 23 1 32 -3 32 -15z"/>
<path d="M2766 1611 c-7 -11 30 -45 42 -37 5 3 12 15 15 26 4 17 0 20 -23 20
-16 0 -31 -4 -34 -9z"/>
<path d="M2646 1552 c-3 -5 1 -33 9 -63 8 -30 15 -55 15 -55 0 -1 -27 -7 -60
-14 -33 -7 -60 -18 -60 -24 0 -6 40 -37 88 -69 l87 -57 18 21 c23 29 22 43 -8
59 l-25 13 23 12 c12 6 21 19 19 28 -3 20 2 21 29 5 18 -11 23 -10 40 11 11
13 18 29 16 34 -3 10 -165 107 -179 107 -4 0 -9 -4 -12 -8z m103 -63 c59 -34
70 -44 60 -55 -10 -12 -17 -11 -46 6 -19 11 -36 20 -38 20 -2 0 -1 -15 2 -34
5 -32 3 -34 -28 -41 l-33 -7 24 -20 c13 -10 30 -23 39 -28 12 -7 13 -11 4 -21
-9 -9 -26 -3 -78 31 -36 23 -65 46 -65 50 0 5 17 11 38 15 60 10 65 16 53 61
-11 41 -14 64 -7 64 2 0 36 -18 75 -41z"/>
<path d="M1029 2223 c-9 -24 -7 -30 10 -42 16 -10 21 -24 21 -56 0 -35 5 -48
26 -64 l27 -21 -64 3 -64 2 0 -35 0 -35 85 -10 85 -11 -92 -8 -93 -8 0 -34 c0
-29 3 -34 23 -34 37 0 40 -12 7 -31 -22 -14 -30 -26 -30 -48 0 -17 5 -33 10
-36 6 -4 35 8 65 25 l54 31 38 -25 c21 -14 41 -26 45 -26 5 0 8 17 8 38 0 32
-5 41 -27 52 l-28 13 25 6 c26 7 26 8 33 121 2 34 0 35 -38 41 -35 5 -36 6 -9
8 18 0 39 10 51 24 24 26 54 110 44 125 -6 10 -165 62 -189 62 -7 0 -17 -12
-23 -27z m111 -17 c41 -13 76 -29 78 -36 2 -6 -3 -31 -13 -56 -12 -31 -24 -46
-41 -50 -62 -16 -102 25 -84 86 8 28 6 33 -10 37 -19 5 -29 43 -12 43 4 0 41
-11 82 -24z m-35 -187 c50 -8 75 -16 75 -25 0 -21 -12 -23 -98 -12 -70 9 -82
13 -82 29 0 22 5 23 105 8z m65 -108 c0 -17 -8 -20 -52 -23 l-53 -3 52 -30
c32 -18 53 -37 53 -47 0 -22 -13 -23 -30 -3 -22 26 -48 27 -89 0 -47 -29 -61
-31 -61 -10 0 9 16 25 35 36 19 12 35 25 35 29 0 5 -16 14 -35 21 -19 7 -35
19 -35 25 0 15 30 20 118 23 55 1 62 -1 62 -18z"/>
<path d="M1112 2139 c2 -29 7 -34 31 -37 21 -3 29 2 36 20 11 28 5 36 -38 44
-32 7 -32 6 -29 -27z m48 -10 c0 -5 -7 -9 -15 -9 -8 0 -15 7 -15 15 0 9 6 12
15 9 8 -4 15 -10 15 -15z"/>
<path d="M1081 1725 c-46 -14 -86 -26 -88 -29 -3 -3 3 -36 13 -75 17 -66 20
-71 46 -71 35 0 41 12 29 55 -5 21 -6 33 0 30 5 -4 9 -14 9 -23 0 -32 16 -45
45 -38 25 6 26 10 21 49 l-5 42 10 -37 c9 -31 16 -38 35 -38 35 0 39 22 19 96
-20 74 -15 72 -134 39z m109 -19 c5 -13 12 -41 16 -61 9 -51 -17 -43 -30 9 -7
25 -14 35 -24 31 -7 -3 -18 -5 -23 -5 -6 0 -8 -8 -5 -17 17 -60 18 -73 3 -73
-10 0 -18 13 -23 35 -7 40 -15 48 -39 39 -16 -7 -16 -19 1 -76 3 -12 0 -18
-10 -18 -16 0 -50 100 -38 111 6 6 135 46 155 48 4 1 12 -10 17 -23z"/>
<path d="M1172 1475 c-45 -31 -82 -59 -82 -64 0 -5 8 -19 18 -31 16 -19 22
-21 40 -11 18 10 23 9 28 -4 7 -18 55 -45 80 -45 9 0 32 16 51 35 29 29 34 40
28 62 -7 28 -62 113 -73 113 -4 0 -44 -25 -90 -55z m118 -12 c37 -57 37 -67 4
-98 -36 -33 -60 -31 -96 7 -25 27 -33 30 -48 20 -14 -9 -21 -8 -30 3 -9 11 3
23 62 64 40 27 74 50 76 50 1 1 16 -20 32 -46z"/>
<path d="M1221 1441 c-20 -15 -22 -21 -12 -40 14 -26 48 -25 65 2 8 12 8 22 0
34 -15 24 -26 25 -53 4z m39 -20 c0 -14 -18 -23 -30 -16 -6 4 -8 11 -5 16 8
12 35 12 35 0z"/>
<path d="M1280 1314 l-75 -75 78 -75 c58 -55 84 -73 98 -69 25 8 59 -12 59
-35 0 -20 35 -50 57 -50 8 0 13 13 14 33 l1 32 8 -29 c22 -72 100 -112 159
-82 53 28 32 68 -37 70 -34 1 -37 3 -37 30 0 17 7 33 18 40 15 9 22 6 41 -16
14 -19 31 -28 50 -28 19 0 27 -4 23 -13 -3 -8 -8 -39 -12 -69 l-7 -56 72 -12
c79 -13 94 -8 88 31 -2 17 -12 25 -36 30 -48 10 -48 16 0 15 39 -1 43 1 46 26
3 24 -1 28 -40 37 l-43 10 46 -5 c45 -5 47 -4 52 23 6 33 -2 39 -62 48 -25 3
-56 9 -68 12 -19 4 -23 1 -23 -18 -1 -24 -1 -24 -16 3 -26 50 -106 74 -155 47
-11 -5 -29 -25 -40 -42 l-20 -32 6 50 c4 28 9 62 11 77 3 14 1 29 -5 32 -6 4
-54 -18 -108 -49 -54 -31 -90 -48 -80 -38 16 19 16 21 -8 43 l-25 23 51 54 51
54 -23 25 c-12 13 -25 24 -28 24 -4 0 -40 -34 -81 -76z m96 35 c3 -6 -17 -34
-45 -63 l-51 -52 25 -24 c17 -16 22 -27 15 -34 -7 -7 -22 1 -47 27 l-38 37 60
60 c62 63 69 67 81 49z m140 -136 c-2 -10 -7 -43 -11 -73 -11 -99 -15 -112
-31 -99 -8 6 -14 19 -14 29 0 24 -48 54 -82 52 -51 -4 -37 15 45 61 91 52 101
55 93 30z m176 -73 c30 -23 43 -60 23 -60 -8 0 -25 11 -39 25 -30 30 -50 31
-76 5 -22 -22 -26 -51 -10 -81 8 -14 21 -19 50 -19 47 0 60 -16 26 -31 -55
-25 -126 23 -126 86 0 77 92 122 152 75z m151 -35 c23 -4 37 -11 37 -21 0 -11
-9 -13 -40 -8 -32 5 -41 3 -46 -10 -8 -21 -2 -27 37 -35 52 -11 50 -34 -2 -29
-38 3 -44 0 -47 -18 -3 -18 4 -22 37 -28 28 -4 41 -11 41 -22 0 -13 -8 -15
-42 -9 -87 13 -85 10 -68 97 20 101 20 99 38 94 9 -2 34 -7 55 -11z"/>
<path d="M1446 1163 l-30 -16 24 -19 25 -20 7 33 c3 19 6 35 5 36 -1 0 -15 -6
-31 -14z"/>
<path d="M2140 3584 c0 -11 6 -15 20 -11 11 3 18 1 14 -4 -9 -15 -32 -10 -44
9 -7 10 -10 11 -7 3 6 -25 33 -36 51 -22 12 11 14 17 5 27 -16 19 -39 18 -39
-2z"/>
<path d="M2450 816 c0 -31 6 -34 13 -6 3 11 1 23 -4 26 -5 3 -9 -6 -9 -20z"/>
<path d="M2491 828 c-1 -10 -5 -18 -11 -18 -5 0 -10 -5 -10 -12 0 -8 6 -7 16
4 9 9 14 22 11 30 -4 9 -6 7 -6 -4z"/>
<path d="M1480 689 c-288 -13 -694 -50 -744 -68 -16 -6 -19 -19 -20 -87 l-1
-79 -107 -14 c-60 -8 -108 -18 -108 -22 0 -5 22 -50 49 -101 l49 -93 -28 -72
-28 -73 26 1 c15 0 108 13 207 28 l180 27 -3 50 c-1 27 -5 63 -8 81 -4 30 -3
31 33 37 362 58 1562 58 1943 0 l36 -5 -8 -81 c-4 -45 -7 -82 -5 -83 5 -3 383
-55 399 -55 15 0 13 9 -12 71 l-30 71 50 97 c28 54 50 100 50 103 0 3 -47 11
-105 18 l-105 12 0 83 0 83 -37 6 c-392 62 -1118 90 -1673 65z m940 -39 c245
-11 456 -26 620 -44 l105 -11 3 -143 3 -143 -23 6 c-31 7 -313 32 -528 47
-231 16 -1062 16 -1300 0 -206 -14 -493 -40 -527 -47 l-23 -5 0 143 0 143 113
12 c452 47 1068 63 1557 42z m-1710 -310 l0 -70 70 -46 c39 -26 69 -49 67 -50
-7 -7 -228 -36 -233 -31 -3 2 3 23 12 46 l16 41 -45 77 c-25 43 -44 79 -42 81
2 3 108 19 138 21 15 1 17 -9 17 -69z m2621 51 c14 -5 10 -18 -28 -84 l-46
-78 17 -41 c9 -23 14 -44 11 -46 -4 -5 -157 13 -218 24 -28 6 -26 8 47 55 l76
48 0 71 0 71 63 -7 c34 -4 69 -10 78 -13z m-2421 -151 c0 -27 -2 -50 -5 -50
-3 0 -37 20 -76 44 l-71 45 38 4 c22 2 56 4 77 5 l37 2 0 -50z m2193 42 l37
-7 -77 -47 c-43 -25 -79 -46 -79 -45 -1 1 1 26 3 55 l6 52 36 -1 c20 0 53 -3
74 -7z"/>
<path d="M1484 617 c-2 -7 -3 -58 -2 -113 3 -113 2 -111 94 -99 53 6 54 7 54
41 0 32 -2 34 -35 34 l-35 0 0 59 c0 33 -3 66 -6 75 -8 20 -62 22 -70 3z m54
-84 l3 -72 37 -3 c50 -4 44 -21 -10 -31 -66 -11 -68 -9 -68 93 0 82 2 91 18
88 14 -3 18 -16 20 -75z"/>
<path d="M1640 520 l0 -110 64 0 c55 0 69 4 95 26 36 30 48 78 31 129 -15 46
-53 65 -130 65 l-60 0 0 -110z m147 75 c43 -30 38 -131 -8 -155 -10 -6 -40
-10 -68 -10 l-51 0 0 90 0 90 53 0 c31 0 61 -6 74 -15z"/>
<path d="M1700 514 l0 -66 28 6 c33 8 52 32 52 64 0 40 -18 62 -50 62 l-30 0
0 -66z m48 44 c19 -19 15 -66 -7 -77 -25 -14 -27 -10 -23 43 4 48 10 54 30 34z"/>
<path d="M1910 520 l0 -111 38 3 c34 3 37 6 40 36 3 29 6 32 38 32 34 0 35 1
32 33 -3 28 -7 32 -38 36 l-35 5 40 5 c37 6 40 9 40 36 l0 30 -77 3 -78 3 0
-111z m140 75 c0 -11 -11 -15 -40 -15 -36 0 -40 -2 -40 -25 0 -22 4 -25 36
-25 28 0 35 -3 32 -17 -2 -12 -14 -19 -36 -21 -28 -3 -32 -7 -32 -33 0 -22 -5
-29 -20 -29 -19 0 -20 7 -20 90 l0 90 60 0 c47 0 60 -3 60 -15z"/>
<path d="M2092 531 c-29 -54 -52 -103 -52 -110 0 -6 17 -11 40 -11 22 0 40 5
40 10 0 15 56 12 70 -4 8 -11 31 -14 83 -13 70 2 72 3 75 29 3 24 6 26 22 16
14 -9 22 -9 34 1 12 10 15 7 18 -21 3 -29 7 -33 34 -36 l31 -3 6 69 c7 68 0
162 -11 162 -4 0 -26 -19 -50 -42 l-43 -43 -45 49 c-52 55 -63 51 -65 -24 0
-25 -4 -65 -7 -89 l-7 -45 -47 102 c-26 56 -53 102 -60 102 -7 0 -37 -44 -66
-99z m108 -7 c22 -48 40 -91 40 -95 0 -15 -38 -10 -44 6 -6 17 -81 21 -91 5
-3 -5 -15 -10 -25 -10 -17 0 -14 11 28 90 26 49 48 90 50 90 1 0 20 -39 42
-86z m150 25 l32 -41 42 41 c23 23 45 41 49 41 4 0 6 -39 5 -87 -3 -74 -6 -88
-20 -91 -15 -3 -18 4 -18 49 l0 53 -28 -27 -28 -27 -27 27 -27 28 0 -43 c0
-29 -5 -44 -15 -49 -9 -3 -18 -3 -21 -1 -7 8 8 168 16 168 4 0 21 -18 40 -41z"/>
<path d="M2136 513 l-15 -31 29 -4 c33 -5 36 4 16 41 l-14 25 -16 -31z"/>
<path d="M1270 568 l0 -53 -17 33 c-18 38 -58 62 -103 62 -117 0 -158 -148
-58 -210 60 -38 134 -13 164 55 l13 30 1 -35 c0 -45 12 -58 50 -52 26 4 30 9
30 36 l1 31 28 -32 c20 -25 36 -33 59 -33 38 0 42 18 12 60 -13 18 -16 31 -10
35 5 3 10 23 10 44 0 59 -30 81 -113 81 l-67 0 0 -52z m148 20 c15 -15 16 -70
0 -86 -9 -9 -7 -19 10 -42 27 -35 27 -40 5 -40 -10 0 -29 14 -43 30 -29 36
-60 33 -60 -6 0 -17 -6 -24 -20 -24 -19 0 -20 7 -20 90 l0 90 58 0 c32 0 63
-5 70 -12z m-217 -8 c29 -16 51 -67 44 -100 -8 -38 -59 -80 -95 -80 -36 0 -86
41 -93 77 -6 34 14 87 40 102 23 13 79 14 104 1z"/>
<path d="M1329 566 c-3 -3 -4 -20 -1 -36 4 -27 8 -31 31 -28 22 2 26 8 26 33
0 25 -5 31 -25 33 -14 2 -28 0 -31 -2z m41 -31 c0 -8 -4 -15 -10 -15 -5 0 -10
7 -10 15 0 8 5 15 10 15 6 0 10 -7 10 -15z"/>
<path d="M1115 546 c-21 -15 -25 -67 -5 -90 20 -25 67 -20 85 8 38 57 -25 122
-80 82z m65 -26 c16 -30 3 -60 -25 -60 -31 0 -50 32 -35 60 14 26 46 26 60 0z"/>
<path d="M2545 579 c-31 -28 -35 -37 -35 -80 0 -130 164 -164 216 -45 12 27
13 28 14 8 0 -36 28 -81 54 -88 12 -3 40 -4 61 -2 56 5 73 34 77 133 l3 80
-35 0 -35 0 -3 -65 c-3 -65 -16 -95 -34 -83 -7 3 -8 33 -5 78 7 79 3 85 -49
85 -22 0 -24 -4 -24 -52 l-1 -53 -21 43 c-37 77 -120 96 -183 41z m140 -13
c65 -65 22 -166 -69 -166 -30 0 -84 47 -87 75 -4 47 3 67 27 90 37 34 96 34
129 1z m117 -63 c-3 -62 -1 -73 16 -82 36 -19 55 8 60 83 4 58 7 66 24 66 19
0 20 -4 13 -72 -4 -43 -14 -80 -23 -90 -21 -25 -86 -24 -112 2 -22 22 -23 36
-13 118 4 41 9 52 22 50 13 -3 15 -15 13 -75z"/>
<path d="M2581 534 c-25 -32 -26 -43 -5 -72 31 -44 104 -16 104 40 0 24 -35
58 -59 58 -11 0 -29 -12 -40 -26z m69 -9 c20 -24 4 -65 -25 -65 -38 0 -53 51
-21 72 17 12 32 9 46 -7z"/>
<path d="M970 581 c-5 -11 -10 -30 -10 -43 -1 -19 -4 -17 -21 15 -23 45 -38
44 -54 -3 l-11 -33 -13 31 c-11 26 -19 32 -43 32 -16 0 -31 -6 -34 -15 -8 -20
84 -205 102 -205 7 0 17 12 20 28 11 43 15 46 35 15 10 -15 24 -28 31 -28 12
0 65 166 67 208 1 25 -55 23 -69 -2z m46 -18 c-3 -10 -12 -45 -21 -78 -9 -33
-19 -67 -21 -75 -3 -9 -14 1 -31 30 l-27 44 -16 -49 -17 -50 -41 82 c-23 46
-42 85 -42 88 0 3 8 5 19 5 13 0 24 -14 35 -45 10 -25 21 -45 26 -45 5 0 11
18 15 40 4 22 10 42 14 44 4 3 18 -16 31 -42 l23 -47 9 45 c13 64 16 70 33 70
11 0 15 -6 11 -17z"/>
<path d="M2971 562 c-28 -22 -31 -75 -6 -102 15 -17 16 -20 3 -20 -9 0 -21 -6
-27 -14 -9 -11 -7 -20 13 -42 20 -24 32 -29 71 -29 39 0 51 5 71 28 29 34 30
56 4 90 l-20 26 20 6 c26 8 25 21 -5 50 -30 30 -92 34 -124 7z m109 -17 c18
-22 4 -31 -24 -15 -14 7 -32 10 -41 6 -26 -10 -13 -38 22 -50 51 -17 69 -40
57 -73 -12 -36 -61 -51 -104 -33 -16 7 -30 19 -30 26 0 17 22 18 37 3 18 -18
58 -7 58 16 0 13 -10 22 -33 29 -19 5 -41 20 -49 33 -14 21 -14 25 1 48 13 20
25 25 55 25 22 0 44 -6 51 -15z m-30 -35 c0 -5 -7 -7 -15 -4 -8 4 -15 8 -15
10 0 2 7 4 15 4 8 0 15 -4 15 -10z m-10 -86 c0 -2 -9 -4 -20 -4 -11 0 -20 4
-20 9 0 5 9 7 20 4 11 -3 20 -7 20 -9z"/>
</g>
</svg>
